<svg width="707" height="805" viewBox="0 0 707 805" fill="none" xmlns="http://www.w3.org/2000/svg">
<path fill-rule="evenodd" clip-rule="evenodd" d="M294.354 350.061L163.683 219.39L0 383.073L126.545 709.064L262.718 803.972H292.291V804.66H444.282L580.455 709.751L707 383.761L543.317 220.078L413.334 350.061H294.354Z" fill="#CC554E"/>
<path fill-rule="evenodd" clip-rule="evenodd" d="M294.354 350.061L163.683 219.39L0 383.073L126.545 709.064L262.718 803.972H292.291V804.66H444.282L580.455 709.751L707 383.761L543.317 220.078L413.334 350.061H294.354Z" fill="#CC554E"/>
<path fill-rule="evenodd" clip-rule="evenodd" d="M171.248 56.395L281.975 0C329.446 53.1774 351.239 103.861 366.115 180.536C380.766 145.772 393.834 122.123 414.022 102.474L539.191 128.608C491.216 188.366 445.178 232.146 345.247 319.801V319.8L345.247 319.801C271.924 229.52 242.912 179.485 202.824 110.349C193.193 93.7407 182.924 76.0303 171.248 56.395Z" fill="#B5CCA6"/>
</svg>
