<svg width="273" height="273" viewBox="0 0 273 273" fill="none" xmlns="http://www.w3.org/2000/svg">
<path fill-rule="evenodd" clip-rule="evenodd" d="M125.234 126.652L101.118 102.535L70.9092 132.744L94.2638 192.908L119.395 210.424H124.853V210.551H152.904L178.036 193.035L201.391 132.871L171.182 102.662L147.193 126.652H125.234Z" fill="#232429"/>
<path fill-rule="evenodd" clip-rule="evenodd" d="M125.234 126.652L101.118 102.535L70.9092 132.744L94.2638 192.908L119.395 210.424H124.853V210.551H152.904L178.036 193.035L201.391 132.871L171.182 102.662L147.193 126.652H125.234Z" fill="#232429"/>
<path fill-rule="evenodd" clip-rule="evenodd" d="M102.515 72.4535L122.95 62.0454C131.711 71.8596 135.733 81.2136 138.479 95.3646C141.182 88.9486 143.594 84.584 147.32 80.9577L170.421 85.7809C161.567 96.8096 153.07 104.89 134.627 121.067V121.067L134.627 121.067C121.095 104.405 115.741 95.1705 108.342 82.411C106.565 79.3459 104.67 76.0773 102.515 72.4535Z" fill="#232429"/>
<path fill-rule="evenodd" clip-rule="evenodd" d="M102.515 72.4535L122.95 62.0454C131.711 71.8596 135.733 81.2136 138.479 95.3646C141.182 88.9486 143.594 84.584 147.32 80.9577L170.421 85.7809C161.567 96.8096 153.07 104.89 134.627 121.067V121.067L134.627 121.067C121.095 104.405 115.741 95.1705 108.342 82.411C106.565 79.3459 104.67 76.0773 102.515 72.4535Z" fill="#232429"/>
<circle cx="136.5" cy="136.5" r="127.5" stroke="#232429" stroke-width="18" stroke-linejoin="round" stroke-dasharray="1 10"/>
</svg>
